<?xml version="1.0" encoding="UTF-8"?>
<svg xmlns="http://www.w3.org/2000/svg" width="643" height="104" viewBox="0 0 643 104" fill="none">
  <g clip-path="url(#clip0)">
    <path d="M634.529 23.1947C635.003 22.8052 635.379 22.3091 635.626 21.7468C635.873 21.1845 635.984 20.5719 635.95 19.9586C635.984 19.3464 635.874 18.7346 635.627 18.1735C635.38 17.6123 635.004 17.1177 634.529 16.73C633.393 15.9118 632.01 15.5105 630.613 15.5936H626.104V28.3876H628.779V24.3236H630.643L633.65 28.3575H636.732L633.267 23.842C633.706 23.6811 634.119 23.4554 634.492 23.1722L634.529 23.1947ZM628.802 17.9041H630.899C631.52 17.8608 632.137 18.0365 632.643 18.4008C632.853 18.5998 633.016 18.8441 633.119 19.1152C633.222 19.3863 633.262 19.6773 633.236 19.9661C633.257 20.2456 633.215 20.5262 633.112 20.7868C633.009 21.0475 632.849 21.2815 632.643 21.4713C632.143 21.8502 631.524 22.0347 630.899 21.9906H628.802V17.9041Z" fill="#002B49"></path>
    <path d="M641.73 17.7611C641.215 16.4151 640.45 15.1791 639.475 14.1186C638.443 12.9983 637.189 12.1062 635.792 11.4996C632.571 10.2117 628.979 10.2117 625.758 11.4996C624.364 12.1064 623.112 12.9985 622.083 14.1186C620.145 16.2275 619.072 18.9896 619.076 21.8552V22.5099C619.086 25.3586 620.137 28.1051 622.03 30.2315C623.059 31.3705 624.313 32.2829 625.713 32.9107C628.965 34.255 632.616 34.255 635.867 32.9107C637.268 32.2848 638.523 31.3721 639.55 30.2315C640.515 29.1557 641.267 27.907 641.768 26.5513C642.256 25.2597 642.511 23.8911 642.519 22.5099V21.8251C642.521 20.4258 642.266 19.0382 641.768 17.731L641.73 17.7611ZM639.054 26.9878C638.287 28.4169 637.15 29.6128 635.762 30.4497C634.248 31.2987 632.541 31.7446 630.805 31.7446C629.07 31.7446 627.363 31.2987 625.848 30.4497C624.465 29.6097 623.331 28.4144 622.564 26.9878C621.773 25.5153 621.369 23.8656 621.391 22.1938C621.363 20.4951 621.767 18.817 622.564 17.3171C623.324 15.8972 624.46 14.7149 625.848 13.9003C627.371 13.0756 629.074 12.6438 630.805 12.6438C632.536 12.6438 634.24 13.0756 635.762 13.9003C637.154 14.7125 638.294 15.8953 639.054 17.3171C639.846 18.8189 640.246 20.4961 640.219 22.1938C640.24 23.8645 639.839 25.5133 639.054 26.9878Z" fill="#002B49"></path>
    <path d="M207.899 36.3726V44.7714H214.702V86.6755H225.698V44.7714V36.3726H214.702H207.899Z" fill="#002B49"></path>
    <path d="M218.333 29.3509C220.633 29.3509 222.311 28.7589 223.369 27.5748C224.455 26.3075 225.021 24.6753 224.955 23.0066C225.002 21.3568 224.437 19.7479 223.369 18.4911C222.306 17.2819 220.628 16.6748 218.333 16.6698C216.038 16.6648 214.377 17.2719 213.349 18.4911C212.252 19.7336 211.668 21.3485 211.718 23.0066C211.649 24.6836 212.234 26.3218 213.349 27.5748C214.427 28.7589 216.088 29.3509 218.333 29.3509Z" fill="#002B49"></path>
    <path d="M184.968 21.4864C181.916 24.1957 180.39 28.3801 180.39 34.0395V36.5607H173.769V44.6736H180.39V86.6679H190.733V44.6736H203.127V36.5607H190.748V32.73C190.638 30.9452 191.238 29.1895 192.416 27.8457C193.056 27.2285 193.818 26.7522 194.653 26.4476C195.488 26.143 196.378 26.0168 197.264 26.0772H203.879V17.4299H198.474C192.522 17.4299 188.019 18.7821 184.968 21.4864Z" fill="#002B49"></path>
    <path d="M268.195 34.8749H267.729C263.69 34.8749 260.305 35.7629 257.574 37.539C254.757 39.4116 252.617 42.1428 251.471 45.3283C251.078 46.3555 250.749 47.4061 250.487 48.4741V36.3725H241.82V86.6679H252.726V56.9031C252.726 53.2305 253.814 50.2904 255.988 48.0828C257.115 46.9702 258.459 46.102 259.936 45.5322C261.413 44.9625 262.991 44.7035 264.572 44.7714C268.05 44.7714 270.783 45.8451 272.772 47.9925C274.762 50.1398 275.764 52.9545 275.779 56.4365V86.6679H286.685V57.9492C286.685 50.4233 285.161 44.7012 282.115 40.7827C279.068 36.8642 274.428 34.8949 268.195 34.8749Z" fill="#002B49"></path>
    <path d="M330.828 37.6746C327.476 36.3701 323.252 35.7179 318.156 35.7179C316.537 35.7179 314.844 35.748 313.075 35.8082C311.306 35.8684 309.597 35.9462 307.949 36.0415C306.303 36.1393 304.792 36.2447 303.439 36.3726V45.795C304.987 45.6746 306.776 45.5617 308.798 45.4714C310.82 45.3811 312.88 45.2983 314.992 45.2381C317.104 45.1779 319.028 45.1403 320.772 45.1403C323.943 45.1403 326.336 45.9506 327.95 47.5711C329.563 49.1917 330.37 51.5548 330.37 54.6605V55.5937H318.9C315.034 55.5067 311.184 56.108 307.528 57.3698C304.612 58.3681 302.064 60.2221 300.215 62.6906C298.501 65.0487 297.644 68.034 297.644 71.6464C297.565 74.7389 298.346 77.7925 299.899 80.4667C301.4 82.9316 303.612 84.8836 306.243 86.066C309.264 87.399 312.54 88.0516 315.841 87.9775C318.957 88.0768 322.052 87.421 324.86 86.066C327.278 84.8274 329.286 82.9139 330.64 80.557C331.287 79.4379 331.804 78.2486 332.181 77.0123V86.668H340.848V55.2249C340.848 50.4937 340.023 46.7132 338.375 43.8835C336.66 40.9952 333.991 38.7986 330.828 37.6746ZM324.116 78.6906C322.374 79.4088 320.506 79.7746 318.622 79.7668C315.33 79.7668 312.812 79.0142 311.068 77.5091C310.206 76.7495 309.524 75.8065 309.073 74.7492C308.622 73.6919 308.412 72.5469 308.46 71.398C308.419 70.2357 308.631 69.0784 309.082 68.0063C309.532 66.9342 310.21 65.973 311.068 65.1892C312.812 63.5987 315.33 62.806 318.622 62.811H330.362V68.034C330.242 71.0895 329.606 73.4551 328.453 75.1309C327.392 76.722 325.883 77.9612 324.116 78.6906Z" fill="#002B49"></path>
    <path d="M382.367 34.8749H381.901C377.862 34.8749 374.477 35.7629 371.746 37.539C368.928 39.4128 366.786 42.1433 365.636 45.3283C365.245 46.3556 364.919 47.4063 364.658 48.4741V36.3725H355.992V86.6679H366.898V56.9031C366.898 53.2305 367.986 50.2904 370.16 48.0828C371.286 46.9704 372.628 46.1022 374.104 45.5325C375.579 44.9628 377.156 44.7037 378.736 44.7714C382.214 44.7714 384.947 45.8451 386.937 47.9925C388.926 50.1398 389.928 52.9545 389.943 56.4365V86.6679H400.842V57.9492C400.842 50.4233 399.321 44.7012 396.279 40.7827C393.238 36.8642 388.6 34.8949 382.367 34.8749Z" fill="#002B49"></path>
    <path d="M461.822 42.205C459.749 39.8772 457.208 38.0151 454.365 36.7413C451.327 35.4069 448.039 34.7397 444.722 34.7845C441.086 34.7322 437.495 35.5993 434.282 37.3057C431.163 39.0332 428.607 41.6221 426.916 44.7638V18.5437H416.018V86.6679H424.669V76.1317C424.917 76.6961 425.172 77.253 425.458 77.7873C427.155 81.0732 429.765 83.7969 432.974 85.6293C436.325 87.475 440.101 88.4091 443.925 88.3386C447.386 88.405 450.82 87.7087 453.982 86.2991C456.908 84.9718 459.527 83.0496 461.671 80.6547C463.83 78.2443 465.493 75.4311 466.564 72.3762C467.707 69.141 468.277 65.7307 468.248 62.2991V60.4477C468.275 57.0207 467.723 53.6137 466.617 50.3706C465.574 47.3577 463.944 44.5822 461.822 42.205ZM455.395 70.4797C454.218 73.0064 452.362 75.1559 450.036 76.6886C447.642 78.2138 444.853 78.9991 442.016 78.9463C439.407 78.9547 436.832 78.3489 434.5 77.1777C432.151 76.0069 430.167 74.2134 428.765 71.9924C427.256 69.5424 426.496 66.704 426.578 63.8269V59.793C426.491 56.8333 427.233 53.9082 428.72 51.349C430.089 49.0743 432.054 47.2185 434.402 45.983C436.758 44.741 439.384 44.0999 442.046 44.1166C444.853 44.0508 447.619 44.7955 450.014 46.2615C452.321 47.7337 454.176 49.8178 455.373 52.2822C456.737 55.1168 457.409 58.2353 457.334 61.3809C457.385 64.5218 456.722 67.6331 455.395 70.4797Z" fill="#002B49"></path>
    <path d="M474.637 18.5437V26.9426H481.251V86.6754H492.255V26.9426V18.5437H481.251H474.637Z" fill="#002B49"></path>
    <path d="M540.247 66.2277C540.247 69.9605 539.177 72.9006 537.037 75.048C535.951 76.1206 534.657 76.959 533.236 77.5117C531.814 78.0644 530.294 78.3196 528.769 78.2616C525.477 78.2616 522.869 77.2581 520.945 75.2512C519.021 73.2443 518.056 70.4848 518.051 66.9728V36.3726H507.16V65.4751C507.16 72.9408 508.746 78.5852 511.918 82.4083C515.09 86.2315 519.625 88.1455 525.522 88.1506H525.988C529.907 88.1506 533.164 87.2801 535.759 85.5391C538.458 83.636 540.507 80.9483 541.63 77.8401C541.978 76.9449 542.274 76.0302 542.517 75.1007V86.6529H551.183V36.3726H540.247V66.2277Z" fill="#002B49"></path>
    <path d="M613.041 59.6049C613.068 55.387 612.137 51.2181 610.32 47.413C608.522 43.6543 605.714 40.4721 602.21 38.2239C598.612 35.8608 594.102 34.6792 588.68 34.6792C584.924 34.6051 581.196 35.3552 577.759 36.8767C574.763 38.2345 572.106 40.2422 569.98 42.7545C567.937 45.2001 566.372 48.0083 565.365 51.0329C564.352 54.1193 563.844 57.3495 563.862 60.5983V62.3669C563.849 65.5857 564.357 68.7854 565.365 71.8419C566.372 74.8665 567.937 77.6748 569.98 80.1204C572.145 82.6627 574.852 84.6867 577.902 86.0432C584.995 88.9674 592.942 89.0348 600.083 86.2314C603.147 84.9426 605.85 82.9251 607.96 80.3537C610.047 77.7866 611.472 74.7445 612.109 71.4957H601.947C601.446 73.5528 600.078 75.3415 597.843 76.8617C595.608 78.3819 592.752 79.1345 589.274 79.1194C585.797 79.1194 582.938 78.3669 580.698 76.8617C578.439 75.3252 576.71 73.1279 575.745 70.5701C574.914 68.4587 574.407 66.2334 574.242 63.9699H613.011L613.041 59.6049ZM580.608 46.1712C582.992 44.7392 585.711 43.961 588.491 43.9147C591.271 43.8685 594.014 44.5559 596.445 45.9078C598.535 47.2915 600.159 49.2744 601.105 51.5973C601.776 53.1947 602.229 54.8757 602.45 56.5945H574.565C574.804 55.1337 575.199 53.703 575.745 52.3274C576.708 49.8307 578.403 47.6845 580.608 46.1712Z" fill="#002B49"></path>
    <path d="M25.9084 91.7027C29.4485 93.0799 32.8609 90.1148 31.7259 86.6679C23.3002 61.0574 23.1649 40.3913 33.7102 22.2239C-23.4508 38.7733 4.86287 83.5371 25.9084 91.7027Z" fill="#BFBA86"></path>
    <path d="M97.2072 12.1769C91.4047 6.29163 82.1822 0 69.2468 0C44.9242 0 33.71 22.2239 33.71 22.2239C33.71 22.2239 48.5245 17.3095 69.2468 17.3095C77.3381 17.3143 85.4128 18.0448 93.3739 19.492C94.2785 19.652 95.2105 19.5198 96.035 19.1145C96.8596 18.7092 97.5341 18.0517 97.9609 17.2373C98.3876 16.4228 98.5447 15.4936 98.4092 14.5839C98.2737 13.6742 97.8528 12.8312 97.2072 12.1769Z" fill="#BFBA86"></path>
    <path d="M112.578 12.2973C109.038 10.9201 105.626 13.8853 106.761 17.3321C115.171 42.9201 115.329 63.6087 104.776 81.7761C161.937 65.2267 133.631 20.493 112.578 12.2973Z" fill="#002B49"></path>
    <path d="M45.0973 84.4854C44.1882 84.3186 43.2496 84.4474 42.4188 84.8531C41.5881 85.2588 40.9088 85.92 40.4804 86.7401C40.052 87.5601 39.897 88.4959 40.038 89.4105C40.179 90.3252 40.6086 91.1706 41.264 91.8232C47.0665 97.7084 56.2965 104 69.232 104C93.547 104 104.761 81.7761 104.761 81.7761C104.761 81.7761 89.9467 86.6679 69.232 86.6679C61.1381 86.6634 53.061 85.933 45.0973 84.4854Z" fill="#002B49"></path>
  </g>
  <defs>
    <clipPath id="clip0">
      <rect width="642.489" height="104" fill="white"></rect>
    </clipPath>
  </defs>
</svg>
